<?xml version="1.0" standalone="no"?>
<!DOCTYPE svg PUBLIC "-//W3C//DTD SVG 20010904//EN"
 "http://www.w3.org/TR/2001/REC-SVG-20010904/DTD/svg10.dtd">
<svg version="1.0" xmlns="http://www.w3.org/2000/svg"
 width="700.000000pt" height="700.000000pt" viewBox="0 0 700.000000 700.000000"
 preserveAspectRatio="xMidYMid meet">
<metadata>
Created by potrace 1.14, written by Peter Selinger 2001-2017
</metadata>
<g transform="translate(0.000000,700.000000) scale(0.100000,-0.100000)"
fill="#000000" stroke="none">
<path d="M2507 6695 c-259 -52 -454 -284 -466 -555 -1 -14 -24 -16 -168 -15
-93 0 -197 -3 -233 -8 -378 -48 -680 -337 -751 -717 -10 -50 -13 -563 -13
-2175 -1 -2136 -1 -2161 34 -2300 31 -124 133 -292 237 -391 46 -43 184 -144
198 -144 3 0 30 -11 60 -25 29 -14 90 -35 136 -48 l84 -22 1860 0 c1023 0
1878 3 1900 7 241 43 431 160 573 353 86 116 141 259 160 410 8 71 7 4228 -2
4297 -37 288 -218 541 -482 672 -71 35 -153 62 -214 72 -19 3 -53 9 -75 13
-22 4 -118 7 -212 6 -110 0 -173 3 -174 10 -14 175 -64 290 -174 400 -66 67
-179 136 -244 150 -12 3 -31 8 -43 12 -13 4 -450 8 -973 9 -769 2 -963 0
-1018 -11z m1863 -576 c3 -4 5 -135 5 -291 l0 -283 -875 -1 -875 -2 0 282 c0
154 3 286 7 291 7 11 1730 15 1738 4z m-2324 -612 c4 -189 125 -380 304 -479
52 -29 127 -53 195 -64 55 -9 1838 -9 1900 0 295 41 491 257 514 569 1 11 330
8 371 -3 90 -25 176 -112 201 -203 7 -27 10 -684 10 -2121 -1 -2321 5 -2138
-71 -2227 -41 -48 -102 -84 -165 -97 -22 -4 -845 -7 -1830 -7 l-1790 1 -46 21
c-88 40 -154 120 -174 211 -8 39 -8 4163 0 4206 18 93 107 187 205 217 14 4
104 8 200 8 l175 1 1 -33z"/>
<path d="M4277 3775 c-20 -8 -47 -21 -60 -29 -12 -9 -244 -237 -515 -508
l-492 -492 -208 206 c-237 236 -261 253 -378 252 -167 0 -287 -121 -287 -289
-1 -118 11 -135 376 -499 362 -362 373 -370 492 -370 132 -1 108 -21 794 665
682 682 664 661 664 788 1 122 -79 237 -190 275 -56 19 -144 20 -196 1z"/>
</g>
</svg>
