<?xml version="1.0" standalone="no"?>
<!DOCTYPE svg PUBLIC "-//W3C//DTD SVG 20010904//EN"
 "http://www.w3.org/TR/2001/REC-SVG-20010904/DTD/svg10.dtd">
<svg version="1.0" xmlns="http://www.w3.org/2000/svg"
 width="700.000000pt" height="700.000000pt" viewBox="0 0 700.000000 700.000000"
 preserveAspectRatio="xMidYMid meet">
<metadata>
Created by potrace 1.14, written by Peter Selinger 2001-2017
</metadata>
<g transform="translate(0.000000,700.000000) scale(0.100000,-0.100000)"
fill="#000000" stroke="none">
<path d="M2899 5387 c-134 -37 -227 -145 -245 -284 l-6 -53 -107 0 c-143 0
-222 -14 -308 -55 -140 -68 -248 -211 -272 -365 -15 -90 -15 -2520 0 -2610 32
-203 206 -377 409 -409 89 -15 2171 -15 2260 0 204 33 376 205 409 409 15 90
15 2520 0 2610 -24 154 -131 297 -271 364 -87 42 -166 56 -309 56 l-107 0 -7
55 c-8 70 -56 165 -103 206 -20 18 -61 44 -92 58 l-55 26 -575 2 c-435 2 -586
-1 -621 -10z m1146 -487 l0 -195 -545 0 -545 0 -3 185 c-1 101 0 190 2 197 4
11 112 13 548 11 l543 -3 0 -195z m-1390 -205 c8 -70 56 -165 103 -206 20 -18
61 -44 92 -58 l55 -26 595 0 595 0 55 26 c31 14 72 40 92 58 47 41 95 136 103
206 l7 55 125 0 c94 0 132 -4 156 -16 45 -23 76 -53 98 -96 18 -36 19 -79 19
-1313 0 -1234 -1 -1277 -19 -1313 -22 -43 -53 -73 -98 -96 -29 -14 -139 -16
-1133 -16 -994 0 -1104 2 -1133 16 -45 23 -76 53 -98 96 -18 36 -19 79 -19
1313 0 1234 1 1277 19 1313 10 20 30 47 43 58 50 47 77 53 209 54 l127 0 7
-55z"/>
<path d="M3965 3631 c-26 -12 -146 -125 -340 -320 l-299 -301 -136 134 c-157
156 -187 171 -265 142 -71 -28 -105 -92 -90 -173 6 -32 37 -68 203 -235 220
-222 248 -241 325 -219 36 11 96 67 409 379 203 202 375 381 383 398 35 73 7
154 -65 192 -53 27 -73 27 -125 3z"/>
</g>
</svg>
